# xmcd
#
# Track frame offsets:
#	150
#	15835
#	29330
#	45531
#	56183
#	71545
#	85758
#	97192
#	110759
#	122745
#	137885
#	148919
#	161086
#	176066
#	195135
#	210444
#	229235
#	242424
#
# Disc length: 3377
#
# Revision: 2
# Processed by: cddbd v1.5.1PL0 Copyright (c) Steve Scherf et al.
# Submitted via: EasyCDDAExtractor 6.2.0.3
# Normalized: r1:DSETVAR1
#
DISCID=fa0d2f12
DTITLE=Various Artist - For The Good Times
DYEAR=1900
DGENRE=Country
TTITLE0=kenny Rogers - For The Good Times
TTITLE1=Ruby, Don't Take Your Love To Town
TTITLE2=The Way It Used To Be
TTITLE3=Ticket To Nowhere
TTITLE4=Tell It All Brother
TTITLE5=But You Know I Love You
TTITLE6=Hurry Up Love
TTITLE7=Sleep Comes Easy
TTITLE8=Poem For My Little Lady
TTITLE9=Heeed The Call
TTITLE10=She Even Woke Me Up
TTITLE11=Me And Bobby McGee
TTITLE12=Shirts Without A Name
TTITLE13=The King Of Oak Streeet
TTITLE14=Just Dropped In
TTITLE15=i Believe In Music
TTITLE16=Run Thru Your Mind
TTITLE17=Always Leaving Always Gone
EXTD=
EXTT0=
EXTT1=
EXTT2=
EXTT3=
EXTT4=
EXTT5=
EXTT6=
EXTT7=
EXTT8=
EXTT9=
EXTT10=
EXTT11=
EXTT12=
EXTT13=
EXTT14=
EXTT15=
EXTT16=
EXTT17=
PLAYORDER=
